<svg width="26" height="19" viewBox="0 0 26 19" fill="none" xmlns="http://www.w3.org/2000/svg">
<g clip-path="url(#clip0_557_1105)">
<path d="M0 19.0007V0.00134277C0.0927604 0.00542865 0.185521 0.013602 0.278281 0.013602H25.7217C25.8145 0.013602 25.9072 0.00542865 26 0.00134277V19.0007C25.9072 18.9959 25.8145 18.9884 25.7217 18.9884H0.278281C0.185521 18.9884 0.0927604 18.9959 0 19.0007ZM24.4576 17.4433V6.59799C24.4048 6.66064 24.3764 6.6906 24.352 6.72329C23.614 7.69344 22.6718 8.48737 21.5929 9.04815C19.7851 10.0097 17.9813 10.9787 16.1721 11.9382C16.0069 12.0261 15.9318 12.1146 15.9223 12.3196C15.8444 13.9818 14.5201 15.2144 12.8849 15.1681C11.3777 15.1245 10.1766 13.9103 10.0797 12.3175C10.0676 12.1173 9.99578 12.0254 9.82719 11.9362C8.0099 10.974 6.19802 10.0015 4.38344 9.03385C3.32037 8.47976 2.39193 7.69665 1.66427 6.74031C1.63438 6.69349 1.60877 6.64403 1.58776 6.59254L1.53969 6.64429V17.4433H24.4576ZM15.4585 10.5913C17.3435 9.58204 19.2244 8.59462 21.0851 7.57179C22.8191 6.61842 23.8746 5.1332 24.2971 3.20127C24.4136 2.66874 24.4441 2.11783 24.5165 1.55874H1.51396C1.53292 1.83114 1.53969 2.09467 1.57083 2.35277C1.85656 4.70487 2.96901 6.5115 5.06187 7.65827C6.09375 8.22349 7.13578 8.76963 8.17307 9.32395C8.96255 9.7457 9.75248 10.1661 10.5429 10.5851C11.7961 8.82956 14.2458 8.87586 15.4585 10.5913ZM13.0095 10.8173C12.7324 10.8165 12.4613 10.8983 12.2305 11.0524C11.9996 11.2065 11.8194 11.4259 11.7124 11.683C11.6055 11.94 11.5768 12.2232 11.6298 12.4967C11.6828 12.7702 11.8152 13.0218 12.0103 13.2196C12.2054 13.4175 12.4545 13.5527 12.726 13.6083C12.9974 13.6638 13.2792 13.6372 13.5357 13.5318C13.7922 13.4264 14.0118 13.2469 14.1669 13.016C14.322 12.7851 14.4055 12.5131 14.407 12.2345C14.4081 11.8603 14.2615 11.501 13.9996 11.2353C13.7376 10.9696 13.3815 10.8193 13.0095 10.8173Z" fill="white"/>
<path d="M11.1536 4.39166H17.8567V5.89526H11.1536V4.39166Z" fill="white"/>
<path d="M9.59225 5.90139H8.146V4.39642H9.59225V5.90139Z" fill="white"/>
</g>
<defs>
<clipPath id="clip0_557_1105">
<rect width="26" height="19" rx="2" fill="white"/>
</clipPath>
</defs>
</svg>
