<svg width="305" height="198" viewBox="0 0 305 198" fill="none" xmlns="http://www.w3.org/2000/svg">
<rect width="305" height="198" rx="30" fill="#5FDA78"/>
<mask id="mask0_795_4171" style="mask-type:alpha" maskUnits="userSpaceOnUse" x="0" y="0" width="305" height="198">
<rect width="305" height="198" rx="30" fill="#5FDA78"/>
</mask>
<g mask="url(#mask0_795_4171)">
<path d="M188.575 198C188.575 198 217.752 171.3 183.952 141.714L148.891 113.207C141.191 106.946 135.269 98.7185 132.179 89.3237C128.531 78.2238 128.17 63.868 141.455 51.0023C150.079 42.6504 161.69 38.0344 173.723 37.6343C182.604 37.3849 191.489 37.9168 200.275 39.2236V5.92096C200.275 5.92096 201.577 -3.26691 183.374 -2.69301V-7H249.821C249.821 -7 302.112 -5.27555 305 51.2809V60.7751C305 60.7751 303.267 111.877 250.976 117.613C250.976 117.613 228.803 119.335 217.5 116.752C217.5 116.752 279.579 117.326 281.6 58.7581C281.6 58.7581 283.044 12.2504 237.399 3.92335H233.009C229.872 3.92321 226.862 5.1539 224.633 7.34774C222.404 9.54158 221.136 12.5212 221.106 15.6386L220.684 58.4905C220.643 62.723 218.28 66.7155 214.396 68.4482C210.809 70.0485 205.941 69.7284 200.513 62.5492C198.979 60.4703 197.209 58.5733 195.238 56.8957C190.643 53.0688 182.466 47.9148 172.516 48.8667C157.8 50.2766 148.266 65.449 154.441 78.8032C154.956 79.913 155.55 80.9853 156.218 82.012C156.218 82.012 157.884 87.2902 180.209 101.389C180.823 101.778 181.442 102.154 182.069 102.521C187.358 105.625 220.065 126.07 220.065 156.944C220.065 156.944 222.953 187.09 188.575 198Z" fill="#330065"/>
</g>
</svg>
