<svg width="46" height="54" viewBox="0 0 46 54" fill="none" xmlns="http://www.w3.org/2000/svg">
<path d="M15.2026 53.6406C15.2026 53.6406 22.7754 46.6543 14.0028 38.9127L4.9029 31.4535C2.90466 29.8153 1.3676 27.6625 0.565567 25.2042C-0.381312 22.2998 -0.47498 18.5434 2.97313 15.177C5.21134 12.9916 8.2249 11.7838 11.348 11.6791C13.6528 11.6138 15.9589 11.753 18.2392 12.0949V3.38092C18.2392 3.38092 18.5772 0.976806 13.8529 1.12697V0H31.0985C31.0985 0 44.6704 0.451222 45.4198 15.2499V17.7341C45.4198 17.7341 44.9702 31.1055 31.3982 32.6064C31.3982 32.6064 25.6435 33.0569 22.7099 32.3812C22.7099 32.3812 38.8219 32.5313 39.3465 17.2064C39.3465 17.2064 39.7213 5.03709 27.8745 2.85822H26.7352C25.921 2.85818 25.1396 3.18021 24.5611 3.75425C23.9826 4.3283 23.6537 5.10794 23.6459 5.92365L23.5364 17.1364C23.5256 18.2438 22.9124 19.2885 21.9042 19.7419C20.9732 20.1606 19.71 20.0769 18.3012 18.1984C17.9028 17.6544 17.4434 17.158 16.932 16.7191C15.7394 15.7177 13.6172 14.3691 11.0346 14.6182C7.21536 14.9871 4.74078 18.9571 6.34342 22.4514C6.47724 22.7418 6.63135 23.0224 6.8046 23.291C6.8046 23.291 7.23697 24.6721 13.0314 28.3613C13.1906 28.4631 13.3513 28.5613 13.5142 28.6573C14.8869 29.4695 23.3757 34.8192 23.3757 42.8979C23.3757 42.8979 24.1251 50.786 15.2026 53.6406Z" fill="#5FDA78"/>
</svg>
